<?xml version="1.0" encoding="utf-8"?>
<!-- Generator: Adobe Illustrator 27.4.1, SVG Export Plug-In . SVG Version: 6.00 Build 0)  -->
<svg version="1.1" id="Layer_1" xmlns="http://www.w3.org/2000/svg" xmlns:xlink="http://www.w3.org/1999/xlink" x="0px" y="0px"
	 viewBox="0 0 700 130" style="enable-background:new 0 0 700 130;" xml:space="preserve" fill="#0156cf">
<g>
	<path d="M13.1,88.88c-4.64-2-8.24-4.56-10.8-7.68l3.12-3.36c2.48,2.8,5.72,5.04,9.72,6.72c4,1.68,8.32,2.52,12.96,2.52
		c5.84,0,10.52-1.1,14.04-3.3c3.52-2.2,5.28-5.14,5.28-8.82c0-2.24-0.6-4.08-1.8-5.52c-1.2-1.44-3.22-2.68-6.06-3.72
		c-2.84-1.04-6.94-2.08-12.3-3.12c-5.84-1.12-10.4-2.34-13.68-3.66c-3.28-1.32-5.64-2.96-7.08-4.92c-1.44-1.96-2.16-4.46-2.16-7.5
		c0-4.96,2.16-8.88,6.48-11.76s10.16-4.32,17.52-4.32c4.72,0,8.9,0.64,12.54,1.92c3.64,1.28,7.06,3.24,10.26,5.88l-2.88,3.6
		c-2.88-2.32-5.86-4.02-8.94-5.1c-3.08-1.08-6.7-1.62-10.86-1.62c-6.08,0-10.78,1-14.1,3c-3.32,2-4.98,4.8-4.98,8.4
		c0,2.16,0.56,3.9,1.68,5.22c1.12,1.32,2.98,2.46,5.58,3.42c2.6,0.96,6.38,1.92,11.34,2.88c6.16,1.12,10.98,2.38,14.46,3.78
		c3.48,1.4,6,3.16,7.56,5.28c1.56,2.12,2.34,4.78,2.34,7.98c0,5.04-2.22,9.1-6.66,12.18c-4.44,3.08-10.3,4.62-17.58,4.62
		C22.74,91.88,17.74,90.88,13.1,88.88z"/>
	<path d="M78.2,87.92c-4.6-2.64-8.2-6.3-10.8-10.98c-2.6-4.68-3.9-9.94-3.9-15.78c0-5.84,1.3-11.1,3.9-15.78
		c2.6-4.68,6.2-8.34,10.8-10.98c4.6-2.64,9.78-3.96,15.54-3.96c5.84,0,11.06,1.32,15.66,3.96c4.6,2.64,8.2,6.3,10.8,10.98
		c2.6,4.68,3.9,9.94,3.9,15.78c0,5.84-1.3,11.1-3.9,15.78c-2.6,4.68-6.2,8.34-10.8,10.98c-4.6,2.64-9.82,3.96-15.66,3.96
		C87.98,91.88,82.8,90.56,78.2,87.92z M106.7,83.72c3.84-2.24,6.86-5.34,9.06-9.3c2.2-3.96,3.3-8.38,3.3-13.26
		c0-4.88-1.1-9.3-3.3-13.26c-2.2-3.96-5.22-7.06-9.06-9.3c-3.84-2.24-8.16-3.36-12.96-3.36c-4.8,0-9.12,1.12-12.96,3.36
		c-3.84,2.24-6.84,5.34-9,9.3c-2.16,3.96-3.24,8.38-3.24,13.26c0,4.88,1.08,9.3,3.24,13.26c2.16,3.96,5.16,7.06,9,9.3
		c3.84,2.24,8.16,3.36,12.96,3.36C98.54,87.08,102.86,85.96,106.7,83.72z"/>
	<path d="M138.98,53.84h41.76v4.8h-41.76V53.84z"/>
	<path d="M246.2,37.52c4.44,4.56,6.66,10.92,6.66,19.08v34.2h-5.04V56.84c0-6.88-1.76-12.16-5.28-15.84
		c-3.52-3.68-8.52-5.52-15-5.52c-4.4,0-8.34,0.98-11.82,2.94c-3.48,1.96-6.18,4.64-8.1,8.04c-1.92,3.4-2.88,7.18-2.88,11.34v33
		h-5.04v-84h5.04v36.24c2.32-3.84,5.5-6.86,9.54-9.06c4.04-2.2,8.54-3.3,13.5-3.3C235.62,30.68,241.76,32.96,246.2,37.52z"/>
	<path d="M271.16,16.22c-0.84-0.84-1.26-1.9-1.26-3.18c0-1.28,0.42-2.36,1.26-3.24c0.84-0.88,1.94-1.32,3.3-1.32
		c1.28,0,2.36,0.44,3.24,1.32c0.88,0.88,1.32,1.96,1.32,3.24c0,1.28-0.44,2.34-1.32,3.18c-0.88,0.84-1.96,1.26-3.24,1.26
		C273.1,17.48,272,17.06,271.16,16.22z M271.94,31.52h5.04V90.8h-5.04V31.52z"/>
	<path d="M352.52,88.7c2.2,3.24,3.3,6.98,3.3,11.22c0,4.96-1.36,9.34-4.08,13.14c-2.72,3.8-6.56,6.72-11.52,8.76
		c-4.96,2.04-10.72,3.06-17.28,3.06c-6.4,0-12-1.04-16.8-3.12c-4.8-2.08-8.5-5.04-11.1-8.88c-2.6-3.84-3.9-8.28-3.9-13.32
		c0-1.28,0.04-2.24,0.12-2.88h18.12c-0.16,3.92,0.94,6.96,3.3,9.12c2.36,2.16,5.78,3.24,10.26,3.24c4,0,7.24-0.9,9.72-2.7
		c2.48-1.8,3.72-4.18,3.72-7.14c0-3.04-1.14-5.38-3.42-7.02c-2.28-1.64-5.54-2.46-9.78-2.46c-6.56,0-12.3-1.24-17.22-3.72
		c-4.92-2.48-8.72-5.98-11.4-10.5c-2.68-4.52-4.02-9.78-4.02-15.78c0-5.76,1.38-10.9,4.14-15.42c2.76-4.52,6.6-8.04,11.52-10.56
		s10.54-3.78,16.86-3.78c4.88,0,9.36,0.96,13.44,2.88l6.96-8.64l13.8,9.96l-7.92,9.24c4,4.56,6,10,6,16.32
		c0,4.4-1.06,8.46-3.18,12.18c-2.12,3.72-5.1,6.78-8.94,9.18C347.22,82.92,350.32,85.46,352.52,88.7z M333.14,69.92
		c2.56-2.56,3.84-5.96,3.84-10.2c0-4.24-1.26-7.62-3.78-10.14c-2.52-2.52-5.9-3.78-10.14-3.78c-4.16,0-7.52,1.26-10.08,3.78
		c-2.56,2.52-3.84,5.9-3.84,10.14c0,4.16,1.28,7.54,3.84,10.14c2.56,2.6,5.92,3.9,10.08,3.9C327.22,73.76,330.58,72.48,333.14,69.92
		z"/>
	<path d="M421.88,37.52c4.28,4.88,6.42,11.48,6.42,19.8V90.8h-18.84V58.4c0-3.84-0.94-6.84-2.82-9c-1.88-2.16-4.5-3.24-7.86-3.24
		c-3.68,0-6.66,1.24-8.94,3.72c-2.28,2.48-3.42,5.72-3.42,9.72v31.2h-18.84v-84h18.84V38c4.56-5.2,10.6-7.8,18.12-7.8
		C411.82,30.2,417.6,32.64,421.88,37.52z"/>
	<path d="M441.74,6.8h18.84v84h-18.84V6.8z"/>
	<path d="M476.24,22.76c-2.04-1.92-3.06-4.36-3.06-7.32c0-3.04,1.04-5.52,3.12-7.44c2.08-1.92,4.72-2.88,7.92-2.88
		c3.2,0,5.84,0.96,7.92,2.88c2.08,1.92,3.12,4.4,3.12,7.44c0,2.96-1.02,5.4-3.06,7.32s-4.7,2.88-7.98,2.88
		C480.94,25.64,478.28,24.68,476.24,22.76z M474.74,31.52h18.84V90.8h-18.84V31.52z"/>
	<path d="M566.36,88.7c2.2,3.24,3.3,6.98,3.3,11.22c0,4.96-1.36,9.34-4.08,13.14c-2.72,3.8-6.56,6.72-11.52,8.76
		c-4.96,2.04-10.72,3.06-17.28,3.06c-6.4,0-12-1.04-16.8-3.12c-4.8-2.08-8.5-5.04-11.1-8.88c-2.6-3.84-3.9-8.28-3.9-13.32
		c0-1.28,0.04-2.24,0.12-2.88h18.12c-0.16,3.92,0.94,6.96,3.3,9.12c2.36,2.16,5.78,3.24,10.26,3.24c4,0,7.24-0.9,9.72-2.7
		c2.48-1.8,3.72-4.18,3.72-7.14c0-3.04-1.14-5.38-3.42-7.02c-2.28-1.64-5.54-2.46-9.78-2.46c-6.56,0-12.3-1.24-17.22-3.72
		c-4.92-2.48-8.72-5.98-11.4-10.5c-2.68-4.52-4.02-9.78-4.02-15.78c0-5.76,1.38-10.9,4.14-15.42c2.76-4.52,6.6-8.04,11.52-10.56
		s10.54-3.78,16.86-3.78c4.88,0,9.36,0.96,13.44,2.88l6.96-8.64l13.8,9.96l-7.92,9.24c4,4.56,6,10,6,16.32
		c0,4.4-1.06,8.46-3.18,12.18c-2.12,3.72-5.1,6.78-8.94,9.18C561.06,82.92,564.16,85.46,566.36,88.7z M546.98,69.92
		c2.56-2.56,3.84-5.96,3.84-10.2c0-4.24-1.26-7.62-3.78-10.14c-2.52-2.52-5.9-3.78-10.14-3.78c-4.16,0-7.52,1.26-10.08,3.78
		c-2.56,2.52-3.84,5.9-3.84,10.14c0,4.16,1.28,7.54,3.84,10.14c2.56,2.6,5.92,3.9,10.08,3.9C541.06,73.76,544.42,72.48,546.98,69.92
		z"/>
	<path d="M635.72,37.52c4.28,4.88,6.42,11.48,6.42,19.8V90.8H623.3V58.4c0-3.84-0.94-6.84-2.82-9c-1.88-2.16-4.5-3.24-7.86-3.24
		c-3.68,0-6.66,1.24-8.94,3.72c-2.28,2.48-3.42,5.72-3.42,9.72v31.2h-18.84v-84h18.84V38c4.56-5.2,10.6-7.8,18.12-7.8
		C625.66,30.2,631.44,32.64,635.72,37.52z"/>
	<path d="M697.7,88.52c-4.64,2.32-9.88,3.48-15.72,3.48c-6.48,0-11.6-1.82-15.36-5.46c-3.76-3.64-5.64-9.5-5.64-17.58V46.52H650.9
		v-15h10.08V16.76l18.72-2.04v16.8h14.76v15H679.7v22.44c0,2.4,0.6,4.18,1.8,5.34c1.2,1.16,2.84,1.74,4.92,1.74
		c2.32,0,4.6-0.56,6.84-1.68L697.7,88.52z"/>
</g>
</svg>
